<svg width="48" height="48" viewBox="0 0 48 48" fill="none" xmlns="http://www.w3.org/2000/svg">
<g opacity="0.7">
<path d="M14.7769 41.8647C11.8944 41.581 9.9557 40.9387 8.50757 39.4926C7.05945 38.0444 6.41912 36.1038 6.13541 33.2233M14.7769 6.84967C11.8944 7.13338 9.9557 7.77568 8.50757 9.22184C7.05945 10.67 6.41912 12.6106 6.13541 15.4911M32.509 6.84967C35.3915 7.13338 37.3302 7.77568 38.7783 9.22184C40.2264 10.67 40.8668 12.6106 41.1505 15.4911M32.509 41.8647C35.3915 41.581 37.3302 40.9387 38.7783 39.4926C40.2264 38.0444 40.8668 36.1038 41.1505 33.2233M15.762 20.4167L23.6429 24.3572M15.762 20.4167V28.2977L23.6429 32.2382M15.762 20.4167L23.6429 16.4763L31.5239 20.4167M23.6429 24.3572L31.5239 20.4167M23.6429 24.3572V32.2382M23.6429 32.2382L31.5239 28.2977V20.4167" stroke="white" stroke-width="1.41151" stroke-linecap="round" stroke-linejoin="round"/>
</g>
</svg>
