<svg width="41" height="54" viewBox="0 0 41 54" fill="none" xmlns="http://www.w3.org/2000/svg">
<g id="&#208;&#161;&#208;&#187;&#208;&#190;&#208;&#185; 3">
<g id="font">
<path id="Vector" d="M26.1877 40.3763C26.3855 40.376 26.5803 40.3274 26.755 40.2347C26.9297 40.1419 27.0791 40.0079 27.1902 39.8441C27.3012 39.6804 27.3705 39.492 27.3921 39.2954C27.4136 39.0987 27.3867 38.8998 27.3138 38.7159L25.2556 33.5369C25.1968 33.389 25.1094 33.2541 24.9985 33.1399C24.8875 33.0257 24.7552 32.9345 24.609 32.8715C24.4628 32.8085 24.3056 32.7749 24.1464 32.7726C23.9872 32.7703 23.8292 32.7994 23.6812 32.8582C23.5333 32.917 23.3984 33.0044 23.2842 33.1153C23.17 33.2263 23.0788 33.3586 23.0158 33.5048C22.9528 33.651 22.9192 33.8082 22.9169 33.9674C22.9146 34.1266 22.9437 34.2846 23.0025 34.4326L25.0603 39.6098C25.1497 39.8359 25.305 40.0298 25.5061 40.1665C25.7071 40.3032 25.9446 40.3762 26.1877 40.3763Z" fill="#E99027"/>
<path id="Vector_2" d="M21.7205 40.0139V34.9599C21.7235 34.7988 21.6944 34.6387 21.6348 34.489C21.5752 34.3393 21.4864 34.2029 21.3735 34.0879C21.2606 33.9729 21.126 33.8816 20.9774 33.8192C20.8288 33.7569 20.6693 33.7247 20.5081 33.7247C20.347 33.7247 20.1875 33.7569 20.0389 33.8192C19.8903 33.8816 19.7556 33.9729 19.6428 34.0879C19.5299 34.2029 19.4411 34.3393 19.3815 34.489C19.3219 34.6387 19.2928 34.7988 19.2958 34.9599V40.0139C19.2928 40.175 19.3219 40.3351 19.3815 40.4849C19.4411 40.6346 19.5299 40.7709 19.6428 40.8859C19.7556 41.0009 19.8903 41.0923 20.0389 41.1547C20.1875 41.217 20.347 41.2491 20.5081 41.2491C20.6693 41.2491 20.8288 41.217 20.9774 41.1547C21.126 41.0923 21.2606 41.0009 21.3735 40.8859C21.4864 40.7709 21.5752 40.6346 21.6348 40.4849C21.6944 40.3351 21.7235 40.175 21.7205 40.0139Z" fill="#E99027"/>
<path id="Vector_3" d="M29.7351 20.681L40.7404 16.8175C40.5897 16.0196 40.3917 15.2313 40.1473 14.4568L25.6738 19.5371C25.4367 19.6202 25.2313 19.7749 25.0859 19.9798C24.9406 20.1847 24.8625 20.4298 24.8625 20.681C24.8625 20.9322 24.9406 21.1773 25.0859 21.3822C25.2313 21.5871 25.4367 21.7418 25.6738 21.8249L40.1456 26.9056C40.39 26.131 40.588 25.3426 40.7387 24.5445L29.7351 20.681Z" fill="#2858A4"/>
<path id="Vector_4" d="M0.852784 26.9056L15.3262 21.8249C15.5633 21.7418 15.7688 21.5871 15.9141 21.3822C16.0594 21.1773 16.1375 20.9322 16.1375 20.681C16.1375 20.4298 16.0594 20.1847 15.9141 19.9798C15.7688 19.7749 15.5633 19.6202 15.3262 19.5371L0.852784 14.4568C0.608307 15.2313 0.410242 16.0196 0.259644 16.8175L11.2649 20.681L0.259644 24.5445C0.410295 25.3426 0.60836 26.131 0.852784 26.9056Z" fill="#2858A4"/>
<path id="Vector_5" d="M24.7122 17.8904C24.4527 17.9565 24.1785 17.9342 23.9331 17.8268C24.094 17.8986 24.2687 17.9343 24.4449 17.9313C24.6211 17.9283 24.7945 17.8867 24.9529 17.8094L38.7442 11.1002C38.3662 10.3814 37.9459 9.68563 37.4855 9.01656L26.9979 14.1184L31.9973 3.58086C31.3236 3.12701 30.6238 2.71335 29.9014 2.34204L24.769 13.1596L25.5914 16.4185C25.6303 16.5729 25.6384 16.7334 25.6153 16.8909C25.5922 17.0484 25.5383 17.1999 25.4567 17.3365C25.375 17.4732 25.2673 17.5925 25.1395 17.6875C25.0118 17.7825 24.8666 17.8515 24.7122 17.8904Z" fill="#DB2340"/>
<path id="Vector_6" d="M23.9208 17.821C23.8953 17.81 23.8703 17.7977 23.8457 17.7845C23.8703 17.7981 23.8953 17.8096 23.9208 17.821Z" fill="#E37223"/>
<path id="Vector_7" d="M14.0023 27.2423L9.00295 37.7798C9.67671 38.2344 10.3769 38.6487 11.0997 39.0203L17.673 25.1621C17.7805 24.9351 17.815 24.6804 17.7715 24.433C17.7281 24.1857 17.6089 23.9579 17.4305 23.7812C17.2521 23.6045 17.0231 23.4875 16.7754 23.4465C16.5276 23.4054 16.2732 23.4423 16.0473 23.5521L2.25555 30.2597C2.63382 30.9786 3.05427 31.6745 3.51471 32.3437L14.0023 27.2423Z" fill="#007B41"/>
<path id="Vector_8" d="M17.1792 17.7705C17.1561 17.7833 17.133 17.7966 17.109 17.8082C17.1325 17.7949 17.1561 17.7838 17.1792 17.7705Z" fill="#D83022"/>
<path id="Vector_9" d="M16.2863 17.8904C16.1319 17.8513 15.9868 17.7823 15.8591 17.6871C15.7315 17.592 15.6238 17.4726 15.5423 17.3359C15.4608 17.1991 15.407 17.0476 15.384 16.8901C15.3611 16.7325 15.3694 16.572 15.4084 16.4177L16.2321 13.1626L11.0993 2.34204C10.3769 2.71335 9.677 3.12701 9.00337 3.58086L14.0027 14.1184L3.51428 9.01825C3.05399 9.68678 2.63368 10.382 2.25555 11.1002L16.0469 17.8094C16.2094 17.8887 16.3876 17.9304 16.5684 17.9314C16.7492 17.9325 16.9279 17.8928 17.0913 17.8154C16.8396 17.9323 16.5552 17.9588 16.2863 17.8904Z" fill="#DB2340"/>
<path id="Vector_10" d="M26.9985 27.2423L37.4861 32.3437C37.9465 31.6745 38.367 30.9786 38.7452 30.2597L24.9535 23.5521C24.7276 23.4423 24.4732 23.4054 24.2254 23.4465C23.9777 23.4875 23.7488 23.6045 23.5703 23.7812C23.3919 23.9579 23.2727 24.1857 23.2293 24.433C23.1858 24.6804 23.2203 24.9351 23.3278 25.1621L29.9011 39.0203C30.6236 38.6492 31.3235 38.2355 31.997 37.7815L26.9985 27.2423Z" fill="#007B41"/>
<path id="Vector_11" d="M19.3293 0.91513L16.2319 13.1626L15.4087 16.4177C15.3523 16.6396 15.36 16.8729 15.4308 17.0907C15.5016 17.3084 15.6327 17.5016 15.8088 17.6479C15.9849 17.7942 16.1988 17.8877 16.4259 17.9174C16.6529 17.9471 16.8837 17.9119 17.0915 17.8158L17.1097 17.8078C17.1334 17.7963 17.1563 17.7832 17.1792 17.7705C17.1944 17.762 17.2093 17.7531 17.2241 17.7442L17.2635 17.7179C17.2877 17.7014 17.3114 17.6845 17.3343 17.6663L17.3449 17.6578C17.5488 17.4931 17.6935 17.2664 17.7571 17.0121L20.5016 6.1623L23.239 17.0117C23.2801 17.1757 23.3552 17.3292 23.4594 17.4623C23.5636 17.5954 23.6946 17.7052 23.844 17.7845C23.8685 17.7976 23.8935 17.8099 23.919 17.8209L23.9317 17.8268C24.1394 17.9171 24.3683 17.9473 24.5923 17.9141C24.8164 17.8809 25.0266 17.7856 25.1993 17.639C25.3719 17.4924 25.5 17.3003 25.5691 17.0846C25.6381 16.8689 25.6453 16.6381 25.5899 16.4185L24.7676 13.1597L21.6786 0.915554C21.6126 0.654175 21.4614 0.422241 21.2489 0.256427C21.0363 0.0906129 20.7746 0.00038112 20.505 0C20.2352 3.28589e-05 19.9731 0.0900427 19.7601 0.255788C19.5472 0.421534 19.3956 0.653551 19.3293 0.91513Z" fill="#37A0DD"/>
<path id="Vector_12" d="M17.2682 32.8582C16.9695 32.7395 16.6359 32.7442 16.3407 32.8713C16.0455 32.9984 15.8128 33.2375 15.6938 33.5361L13.636 38.7134C13.5772 38.8613 13.5481 39.0194 13.5504 39.1786C13.5527 39.3378 13.5863 39.4949 13.6493 39.6411C13.7124 39.7873 13.8036 39.9197 13.9177 40.0306C14.0319 40.1416 14.1668 40.2289 14.3148 40.2877C14.4627 40.3466 14.6208 40.3756 14.78 40.3734C14.9391 40.3711 15.0963 40.3375 15.2425 40.2744C15.3887 40.2114 15.5211 40.1202 15.632 40.006C15.7429 39.8919 15.8303 39.757 15.8891 39.609L17.9469 34.4318C18.0652 34.1331 18.0602 33.7996 17.933 33.5046C17.8057 33.2096 17.5666 32.9772 17.2682 32.8582Z" fill="#E99027"/>
<g id="Group 4">
<path id="Vector_13" d="M21.0889 47.8842H21.8549V47.2614H20.2318L20.1166 47.1462V46.6467H21.4939L21.979 46.1383V45.2909L21.491 44.7939H19.9933L19.4946 45.2909V47.4059L19.9742 47.8859L21.0889 47.8842ZM20.1166 45.5472L20.2513 45.4125H21.2317L21.3588 45.5417V45.8879L21.2296 46.0239H20.1166V45.5472Z" fill="white"/>
<path id="Vector_14" d="M14.4736 46.6465H15.7289V47.8946H16.3513V44.7776H15.7289V46.0237H14.4736V45.3801V44.7776H13.8512V45.4564V47.8946H14.4736V46.6465Z" fill="white"/>
<path id="Vector_15" d="M17.5469 44.7776H17.2334V47.8946H17.8562V45.4064H19.0666V44.7776H17.8562H17.5469Z" fill="white"/>
<path id="Vector_16" d="M23.2583 47.4301L23.5388 45.4066H24.209V47.8948H24.8314V44.7842H22.9965L22.6728 47.1204L22.5169 47.2614H22.2012V47.8842H22.7567L23.2583 47.4301Z" fill="white"/>
<path id="Vector_17" d="M30.1454 47.2664H29.0947L28.9744 47.1461V45.679L29.2591 45.4036H29.9708L30.2318 45.6497V46.0302H30.8546V45.3807L30.2178 44.7812H29.0074L28.352 45.415V47.4041L28.8367 47.8892H30.2835L30.9766 47.5664L30.714 47.0017L30.1454 47.2664Z" fill="white"/>
<path id="Vector_18" d="M33.3939 44.696L32.4241 46.0238H32.0991V44.7756H31.4767V47.8947H32.0991V46.6461H32.4245L33.3947 47.9604L33.8955 47.5905L32.9681 46.3343L33.8963 45.0629L33.3939 44.696Z" fill="white"/>
<path id="Vector_19" d="M9.60404 44.7263L8.59909 45.8651L7.59372 44.7263L7.12726 45.1385L8.18389 46.3354L7.12726 47.5322L7.59372 47.9445L8.59909 46.8056L9.60404 47.9445L10.0709 47.5322L9.01429 46.3354L10.0709 45.1385L9.60404 44.7263Z" fill="white"/>
<path id="Vector_20" d="M5.05745 44.7902L4.68546 45.1622L4.57065 44.7008L3.96649 44.8508L4.11732 45.4566V49.1358H4.73969V47.7012L4.95153 47.9131H6.12849L6.65681 47.3848V45.3134L6.13357 44.7902H5.05745ZM6.03486 47.1272L5.87089 47.2911H5.20997L4.73969 47.0098V45.7782L5.31504 45.4126H5.8764L6.03486 45.5715V47.1272Z" fill="white"/>
<path id="Vector_21" d="M39.8867 44.7749H38.3551L37.8518 45.2596V46.1438L38.3504 46.6501H38.3822L37.9585 47.317L37.5955 47.4381L37.7933 48.0313L38.3691 47.8398L39.1228 46.6484H39.5715V47.9122H40.1985V45.4003H40.5832V44.7733L39.8867 44.7749ZM39.5732 46.0231H38.6131L38.4792 45.8867V45.5265L38.6063 45.402H39.5715L39.5732 46.0231Z" fill="white"/>
<path id="Vector_22" d="M12.9398 46.9435V45.3001L12.467 44.8251H11.196L10.4681 45.1217L10.6825 45.6966L11.3066 45.4373H12.2137L12.3272 45.5509V46.0322H10.9668L10.491 46.5368V47.3752L10.9486 47.8751H12.448L12.6916 47.6315L12.9856 48.0217L13.4758 47.6523L12.9398 46.9435ZM12.3264 47.1303L12.1938 47.2629H11.2193L11.1049 47.1358V46.7804L11.232 46.6473H12.2535L12.3276 46.6897L12.3264 47.1303Z" fill="white"/>
<path id="Vector_23" d="M36.8378 45.2988L36.3645 44.8251H35.0935L34.3657 45.1217L34.58 45.6966L35.2045 45.4373H36.1112L36.2247 45.5509V46.0322H34.8643L34.3885 46.5346V47.3731L34.8461 47.873H36.3455L36.5891 47.6294L36.8831 48.0196L37.3733 47.6502L36.8378 46.9435V45.2988ZM36.2239 47.1291L36.0913 47.2617H35.1168L35.0024 47.1346V46.7791L35.1295 46.6461H36.151L36.2252 46.6884L36.2239 47.1291Z" fill="white"/>
<path id="Vector_24" d="M27.8827 47.431V46.5663L27.3951 46.0706H26.1969V44.8344H25.5834V47.9051H27.3883L27.8827 47.431ZM27.2688 47.1701L27.1417 47.2916H26.1969V46.6841H27.1362L27.2671 46.8176L27.2688 47.1701Z" fill="white"/>
<path id="Vector_25" d="M2.08146 43.5164C1.98667 43.5162 1.89418 43.5456 1.81692 43.6005C1.73967 43.6554 1.68151 43.7331 1.65059 43.8227L0.415588 47.909H1.05364L1.32225 47.0422H2.84407L3.11268 47.909H3.75031L2.5153 43.8176C2.48348 43.7284 2.42453 43.6514 2.34673 43.5974C2.26893 43.5434 2.17617 43.5151 2.08146 43.5164ZM1.51671 46.4241L2.08146 44.5849L2.64834 46.4241H1.51671Z" fill="white"/>
<path id="Vector_26" d="M16.5671 52.5814L16.4133 52.7204H16.1028V53.3343H16.6502L17.1442 52.8864L17.4208 50.8922H18.0813V53.3449H18.6948V50.2787H16.8862L16.5671 52.5814Z" fill="white"/>
<path id="Vector_27" d="M24.4809 52.6994H23.4451L23.3264 52.5808V51.1348L23.6073 50.8632H24.3089L24.5661 51.106V51.4809H25.1796V50.8408L24.5521 50.2498H23.3591L22.713 50.8747V52.835L23.1909 53.3129H24.6169L25.2999 52.9947L25.041 52.4384L24.4809 52.6994Z" fill="white"/>
<path id="Vector_28" d="M21.8512 50.752L21.378 50.2787H20.107L19.3791 50.5753L19.5935 51.1502L20.2175 50.8905H21.1242L21.2382 51.0045V51.4858H19.8782L19.402 51.9883V52.8267L19.8595 53.3266H21.3585L21.6021 53.083L21.8965 53.4732L22.3863 53.1038L21.8508 52.3933L21.8512 50.752ZM21.2377 52.5818L21.1051 52.7144H20.1298L20.0159 52.5899V52.2344L20.143 52.101H21.164L21.2386 52.1433L21.2377 52.5818Z" fill="white"/>
<path id="Vector_29" d="M26.4262 50.2643H25.525V50.8778H26.4262V53.3384H27.0401V50.8778H27.9412V50.2643H27.0401H26.4262Z" fill="white"/>
<path id="Vector_30" d="M10.8744 50.2585L10.2283 50.8834V52.6848L10.8706 53.3322H12.0798L12.6971 52.681V50.8499L12.0696 50.2568L10.8744 50.2585ZM12.0798 52.4366L11.8124 52.7187H11.1261L10.8418 52.4323V51.1435L11.1227 50.8724H11.8256L12.0827 51.1147L12.0798 52.4366Z" fill="white"/>
<path id="Vector_31" d="M29.0881 51.4984V50.2621H28.4763V53.3333H30.2816L30.7739 52.8588V51.9941L30.2862 51.4984H29.0881ZM30.1583 52.5999L30.0312 52.7215H29.0881V52.1118H30.027L30.1583 52.2453V52.5999Z" fill="white"/>
<path id="Vector_32" d="M14.4009 50.16H15.3156L15.8054 49.9838L15.6003 49.4148L15.2097 49.5555H14.1505L13.3422 50.3638V52.6843L13.9751 53.3223H15.1648L15.7732 52.68V51.1663L15.1546 50.5837H14.2247L13.9467 50.7532V50.6129L14.4009 50.16ZM14.3954 51.1883H14.9148L15.169 51.4272V52.4394L14.9055 52.7177H14.2276L13.9472 52.4351V51.4637L14.3954 51.1883Z" fill="white"/>
</g>
</g>
</g>
</svg>
