<svg width="50" height="51" viewBox="0 0 50 51" fill="none" xmlns="http://www.w3.org/2000/svg">
<g id="Group 5">
<path id="Vector" d="M29.5167 41.3618C29.6398 41.3619 29.7619 41.3384 29.8762 41.2925C29.995 41.2455 30.1035 41.1754 30.1952 41.0864C30.287 40.9974 30.3602 40.8911 30.4109 40.7737C30.4615 40.6563 30.4884 40.5301 30.4901 40.4022C30.4919 40.2744 30.4683 40.1475 30.4209 40.0287L28.7691 35.8733C28.6738 35.6335 28.4871 35.4414 28.2501 35.3392C28.0131 35.237 27.7452 35.2332 27.5053 35.3285C27.2655 35.4239 27.0734 35.6106 26.9712 35.8476C26.869 36.0846 26.8652 36.3525 26.9606 36.5923L28.6124 40.7478C28.6841 40.929 28.8087 41.0845 28.97 41.194C29.1312 41.3035 29.3217 41.362 29.5167 41.3618Z" stroke="white" stroke-width="1.06927" stroke-miterlimit="10"/>
<path id="Vector_2" d="M25.9301 41.0722V37.0152C25.9301 36.7575 25.8277 36.5104 25.6455 36.3282C25.4632 36.146 25.2161 36.0436 24.9584 36.0436C24.7007 36.0436 24.4536 36.146 24.2713 36.3282C24.0891 36.5104 23.9868 36.7575 23.9868 37.0152V41.0722C23.9868 41.3299 24.0891 41.577 24.2713 41.7592C24.4536 41.9415 24.7007 42.0438 24.9584 42.0438C25.2161 42.0438 25.4632 41.9415 25.6455 41.7592C25.8277 41.577 25.9301 41.3299 25.9301 41.0722Z" stroke="white" stroke-width="1.06927" stroke-miterlimit="10"/>
<path id="Vector_3" d="M19.7348 30.822L15.7226 39.2799C16.2637 39.6445 16.8261 39.9765 17.4067 40.2742L22.6828 29.1514C22.7699 28.9693 22.7982 28.7646 22.7636 28.5657C22.7291 28.3668 22.6334 28.1836 22.4899 28.0415C22.3465 27.8995 22.1623 27.8057 21.9631 27.7731C21.7639 27.7405 21.5594 27.7708 21.3782 27.8598L10.3066 33.2466C10.6102 33.8235 10.9476 34.382 11.3171 34.9191L19.7348 30.822Z" stroke="white" stroke-width="1.06927" stroke-miterlimit="10"/>
<path id="Vector_4" d="M30.1664 30.822L38.5834 34.9159C38.9528 34.3798 39.2903 33.8224 39.594 33.2466L28.5243 27.8598C28.3431 27.7708 28.1386 27.7405 27.9394 27.7731C27.7401 27.8057 27.556 27.8995 27.4125 28.0415C27.2691 28.1836 27.1734 28.3668 27.1389 28.5657C27.1043 28.7646 27.1326 28.9693 27.2197 29.1514L32.4957 40.2742C33.0764 39.9765 33.6388 39.6445 34.1799 39.2799L30.1664 30.822Z" stroke="white" stroke-width="1.06927" stroke-miterlimit="10"/>
<path id="Vector_5" d="M22.3564 35.3284C22.2377 35.281 22.1108 35.2575 21.9829 35.2592C21.8551 35.261 21.7289 35.2879 21.6115 35.3385C21.4941 35.3891 21.3878 35.4624 21.2988 35.5542C21.2097 35.6459 21.1397 35.7543 21.0926 35.8732L19.4415 40.0286C19.3941 40.1474 19.3706 40.2743 19.3723 40.4021C19.374 40.53 19.401 40.6562 19.4516 40.7736C19.5022 40.891 19.5754 40.9973 19.6672 41.0863C19.759 41.1753 19.8674 41.2454 19.9862 41.2924C20.1003 41.3383 20.2222 41.3618 20.3451 41.3617C20.5405 41.3624 20.7315 41.3042 20.8933 41.1946C21.0551 41.0851 21.1801 40.9293 21.252 40.7476L22.9038 36.5922C22.9511 36.4733 22.9745 36.3463 22.9726 36.2183C22.9707 36.0904 22.9435 35.964 22.8927 35.8466C22.8418 35.7292 22.7683 35.623 22.6762 35.534C22.5842 35.4451 22.4755 35.3752 22.3564 35.3284Z" stroke="white" stroke-width="1.06927" stroke-miterlimit="10"/>
<path id="Vector_6" d="M32.363 25.5549L41.1959 22.4541C41.0747 21.8133 40.9153 21.1804 40.7185 20.5587L29.1027 24.6396C28.912 24.7059 28.7467 24.8298 28.6297 24.9943C28.5127 25.1588 28.4498 25.3557 28.4498 25.5575C28.4498 25.7594 28.5127 25.9562 28.6297 26.1207C28.7467 26.2852 28.912 26.4092 29.1027 26.4754L40.7185 30.5563C40.915 29.9345 41.0744 29.3016 41.1959 28.661L32.363 25.5549Z" stroke="white" stroke-width="1.06927" stroke-miterlimit="10"/>
<path id="Vector_7" d="M9.18218 30.5513L20.7979 26.4703C20.9886 26.4041 21.1539 26.2802 21.271 26.1157C21.388 25.9512 21.4508 25.7543 21.4508 25.5525C21.4508 25.3506 21.388 25.1537 21.271 24.9893C21.1539 24.8248 20.9886 24.7008 20.7979 24.6346L9.18218 20.5536C8.98569 21.1754 8.82628 21.8083 8.70477 22.449L17.5377 25.5499L8.70477 28.6559C8.82628 29.2966 8.98569 29.9295 9.18218 30.5513Z" stroke="white" stroke-width="1.06927" stroke-miterlimit="10"/>
<path id="Vector_8" d="M28.3312 23.3157C28.2516 23.3358 28.3889 23.3157 28.5256 23.251L39.5952 17.8674C39.2916 17.2904 38.9542 16.732 38.5847 16.1948L30.1664 20.2913L34.178 11.8334C33.6368 11.4689 33.0744 11.1368 32.4938 10.8391L28.1084 20.097L28.3312 23.3157Z" stroke="white" stroke-width="1.06927" stroke-miterlimit="10"/>
<path id="Vector_9" d="M21.5686 23.3151C21.7928 23.3721 21.5116 23.3151 21.3743 23.2503L10.3066 17.8667C10.6102 17.2898 10.9476 16.7313 11.3171 16.1942L19.7381 20.2881L15.7226 11.8302C16.2637 11.4656 16.8261 11.1336 17.4067 10.8359L21.8971 20.0989L21.7416 21.8965L21.5686 23.3151Z" stroke="white" stroke-width="1.06927" stroke-miterlimit="10"/>
<path id="Vector_10" d="M24.0107 10.0818L21.5246 19.9116L20.8639 22.5247C20.8184 22.7029 20.8243 22.8903 20.881 23.0652C20.9378 23.2401 21.043 23.3953 21.1844 23.5128C21.3258 23.6303 21.4977 23.7052 21.6801 23.7289C21.8624 23.7526 22.0477 23.7241 22.2145 23.6467L22.2287 23.6395C22.2482 23.6305 22.2663 23.6201 22.2851 23.6097C22.3039 23.5994 22.3091 23.5961 22.3207 23.5884C22.3324 23.5806 22.3421 23.5748 22.3525 23.5676C22.3628 23.5605 22.3907 23.5404 22.4095 23.5262L22.4179 23.5191C22.5819 23.3869 22.6985 23.205 22.7502 23.0008L24.9526 14.2923L27.1492 23.0002C27.1823 23.1318 27.2427 23.2551 27.3263 23.3619C27.41 23.4688 27.5152 23.557 27.635 23.6208C27.6553 23.6311 27.6754 23.6408 27.6952 23.6499L27.7056 23.6551C27.8282 23.7085 27.9605 23.7358 28.0943 23.7354C28.1747 23.7356 28.2548 23.7256 28.3326 23.7056C28.4566 23.6745 28.5731 23.6193 28.6757 23.5431C28.7782 23.4669 28.8647 23.3712 28.9303 23.2615C28.9958 23.1518 29.039 23.0303 29.0575 22.9038C29.076 22.7774 29.0694 22.6486 29.038 22.5247L28.3786 19.9091L25.8977 10.0818C25.8448 9.87176 25.7233 9.68539 25.5524 9.5523C25.3816 9.41922 25.1711 9.34704 24.9545 9.34723C24.7378 9.34689 24.5272 9.41901 24.3562 9.5521C24.1852 9.6852 24.0636 9.87165 24.0107 10.0818Z" fill="white"/>
<path id="Vector_11" d="M7.05608 37.4196L6.79697 37.06L7.6585 36.4337L8.01672 36.926L7.64749 37.1948L8.84003 38.8336L9.20925 38.5655L9.56747 39.0578L8.70594 39.6841L8.45137 39.3343L5.21837 41.0995L4.10486 39.5682L7.05608 37.4196ZM8.08862 38.8375L7.41429 37.9106L4.95278 39.701L5.39326 40.3066L8.08862 38.8375Z" fill="white"/>
<path id="Vector_12" d="M2.54114 36.7977L2.82227 35.9381L5.45932 34.5694L6.32344 34.8343L6.86238 35.8708L6.58903 36.7329L3.94679 38.1049L3.07943 37.8354L2.54114 36.7977ZM3.32429 36.3637L3.19927 36.7446L3.50242 37.3276L3.89108 37.45L6.08053 36.3112L6.20231 35.9226L5.8998 35.3396L5.51697 35.223L3.32429 36.3637Z" fill="white"/>
<path id="Vector_13" d="M1.19647 33.461L1.57995 32.6423L2.67727 32.2568L3.48956 32.6559L3.88535 33.7817L5.61359 33.1747L5.81569 33.7493L2.36958 34.9593L2.46998 35.2463L1.89476 35.449L1.69266 34.8745L1.59226 34.5875L1.19647 33.461ZM2.02302 33.132L1.85395 33.4947L2.16618 34.3847L3.30948 33.9838L2.99661 33.0938L2.63775 32.9163L2.02302 33.132Z" fill="white"/>
<path id="Vector_14" d="M0.386169 30.1605L0.898553 29.4137L3.8135 28.8307L4.57009 29.3256L4.79875 30.4721L4.29673 31.2242L1.3766 31.8072L0.618717 31.3064L0.386169 30.1605ZM1.25936 29.9617L1.03329 30.2927L1.16284 30.9405L1.49903 31.1652L3.92362 30.682L4.14839 30.3452L4.01884 29.7006L3.68395 29.4785L1.25936 29.9617Z" fill="white"/>
<path id="Vector_15" d="M0.709303 27.8572L4.35363 27.611L4.39444 28.2186L0.142508 28.5037L0.101699 27.8961L0 26.3803L0.606956 26.3395L0.709303 27.8572Z" fill="white"/>
<path id="Vector_16" d="M3.51407 23.854L3.43569 25.075L4.2726 25.3439L4.23244 25.9696L0.0485229 24.6216L0.0971054 23.8683L4.419 23.0657L4.37819 23.6979L3.51407 23.854ZM2.89675 23.9667L1.06292 24.3074L2.84169 24.8788L2.89675 23.9667Z" fill="white"/>
<path id="Vector_17" d="M1.09926 18.5591L1.26184 17.9728L5.36803 19.1129L5.2048 19.6991L3.44546 19.2107L3.12158 20.3838L4.87962 20.8742L4.71638 21.4572L0.61084 20.3178L0.77343 19.7309L2.53341 20.2193L2.85729 19.0462L1.09926 18.5591Z" fill="white"/>
<path id="Vector_18" d="M5.50599 16.5899L5.01304 17.7105L5.70745 18.2488L5.45482 18.8227L1.98798 16.119L2.29243 15.4278L6.62728 16.1591L6.37206 16.7421L5.50599 16.5899ZM4.88802 16.4843L3.04902 16.1734L4.51944 17.3199L4.88802 16.4843Z" fill="white"/>
<path id="Vector_19" d="M5.0766 10.7691L5.96728 10.6136L6.91237 11.2906L7.05229 12.1851L6.35659 13.1568L7.84645 14.2243L7.49147 14.7205L4.52211 12.5926L4.34462 12.84L3.84973 12.485L4.20406 11.9902L4.38155 11.7427L5.0766 10.7691ZM5.82153 11.2582L5.42769 11.3281L4.87774 12.0951L5.86234 12.8005L6.41229 12.0335L6.3514 11.6378L5.82153 11.2582Z" fill="white"/>
<path id="Vector_20" d="M9.32665 11.3904L9.13945 10.9887L5.922 9.65694L6.37543 9.18407L8.73848 10.1648L7.63728 7.87947L8.09072 7.41113L10.0632 11.5024L9.28908 12.3037L8.85119 11.8807L9.32665 11.3904Z" fill="white"/>
<path id="Vector_21" d="M12.6878 8.09707L13.2338 8.37626L12.8873 9.04346L11.8897 9.813L11.0062 9.69511L9.17297 7.31846L9.29605 6.43167L10.2029 5.73273L11.0968 5.83507L11.457 6.29952L10.9751 6.67199L10.7743 6.41288L10.3804 6.37078L9.8622 6.76851L9.80908 7.14745L11.3339 9.12443L11.718 9.17366L12.4073 8.64184L12.6878 8.09707Z" fill="white"/>
<path id="Vector_22" d="M15.2939 6.55152L15.7952 6.90326L15.3593 7.5154L14.2633 8.13855L13.4056 7.89823L11.9222 5.28903L12.1684 4.42815L13.1627 3.862L14.034 4.08872L14.3255 4.60175L13.7962 4.90296L13.6343 4.61665L13.2502 4.52013L12.684 4.84401L12.5778 5.21194L13.8085 7.38196L14.1823 7.48495L14.9389 7.05419L15.2939 6.55152Z" fill="white"/>
<path id="Vector_23" d="M16.277 7.0353L14.7224 3.06774L15.295 2.84361L15.9628 4.55047L16.2459 4.43971L16.4953 2.37333L17.1431 2.12006L16.8548 4.53493L18.6685 6.09863L18.0279 6.34997L16.4687 5.00391L16.1857 5.11597L16.8503 6.81118L16.277 7.0353Z" fill="white"/>
<path id="Vector_24" d="M19.8293 1.42968L20.422 1.29041L21.3969 5.43611L20.8042 5.57603L20.216 3.075L19.5391 5.54169L19.6129 5.85586L19.0202 5.99513L18.0453 1.84943L18.6381 1.70951L19.2476 4.30576L19.9265 1.84425L19.8293 1.42968Z" fill="white"/>
<path id="Vector_25" d="M23.3538 0.95092L23.9601 0.897156L24.3377 5.14197L23.7308 5.19573L23.5054 2.63641L22.4858 4.98262L22.5143 5.3065L21.9073 5.36026L21.5303 1.11545L22.1366 1.06169L22.3731 3.71753L23.3914 1.3765L23.3538 0.95092ZM22.2856 0.899099L21.8626 0.539589L22.2552 0.0770843L22.4864 0.271414L22.8621 0.238377L23.061 0L23.5242 0.399024L23.1588 0.822663L22.2856 0.899099Z" fill="white"/>
<path id="Vector_26" d="M28.569 4.57454L28.7634 5.15752L28.0508 5.39266L26.7987 5.24627L26.2494 4.54474L26.5979 1.56502L27.3059 1.01636L28.4427 1.14591L29.0115 1.84226L28.9428 2.42913L28.3378 2.35853L28.376 2.03465L28.1234 1.7289L27.4756 1.65376L27.1725 1.8876L26.8829 4.36725L27.1232 4.6717L27.988 4.77275L28.569 4.57454Z" fill="white"/>
<path id="Vector_27" d="M32.4536 2.02418L32.3014 2.61365L30.5388 2.16021L30.2324 3.34497L31.5467 3.6857L31.3939 4.27452L30.0796 3.93444L29.7758 5.1069L31.5377 5.56357L31.3855 6.15304L29.3579 5.6277L29.0341 5.54349L30.1022 1.41852L30.4261 1.50208L32.4536 2.02418Z" fill="white"/>
<path id="Vector_28" d="M35.0357 3.02117L35.3887 3.84383L34.9301 4.95928L34.5239 5.11475L34.6988 5.52219L34.1936 6.75295L33.5749 7.02566L32.3137 6.50744L31.7502 6.27619L33.3696 2.33453H33.3748L35.0357 3.02117ZM34.0387 5.52737L33.8904 5.18341L33.0062 4.82001L32.5437 5.94648L33.5639 6.36429L33.7252 6.29238L34.0387 5.52737ZM34.728 3.84901L34.5822 3.47849L33.7097 3.11963L33.2426 4.2571L34.1178 4.61532L34.4676 4.48576L34.728 3.84901Z" fill="white"/>
<path id="Vector_29" d="M38.5984 4.92363L38.292 5.45026L36.7199 4.53367L36.1039 5.59148L37.2776 6.27487L36.9712 6.80085L35.7975 6.11746L35.1879 7.16425L36.7613 8.08019L36.4549 8.60682L34.647 7.55291L34.3575 7.38384L36.5022 3.70129L36.7918 3.86971L38.5984 4.92363Z" fill="white"/>
<path id="Vector_30" d="M40.8852 6.63826L41.0018 7.53542L40.2827 8.45006L39.3843 8.54982L38.4457 7.81266L37.314 9.25394L36.8353 8.87824L39.0908 6.00475L38.8512 5.81689L39.2269 5.3382L39.7062 5.7139L39.9459 5.90175L40.8852 6.63826ZM40.3669 7.36052L40.3145 6.96344L39.5721 6.38045L38.8227 7.33591L39.5644 7.9189L39.9627 7.87549L40.3669 7.36052Z" fill="white"/>
<path id="Vector_31" d="M42.6657 8.13923L39.5798 11.2258C47.6542 19.3002 47.6542 32.3916 39.5798 40.4666C31.5054 48.5417 18.4134 48.541 10.339 40.4666L7.25238 43.5526C17.0336 53.3339 32.8871 53.3339 42.6657 43.5526C52.4444 33.7713 52.4451 17.9186 42.6657 8.13923ZM41.5833 10.6655C41.356 10.4168 41.1189 10.1693 40.8792 9.92901L41.3663 9.44189C41.6138 9.68869 41.8573 9.94391 42.0918 10.2004L41.5833 10.6655ZM9.31033 42.9787C9.05123 42.7442 8.7986 42.5006 8.5518 42.2532L9.03892 41.7661C9.27924 42.0057 9.52669 42.2428 9.77543 42.4702L9.31033 42.9787ZM12.7305 45.5697C12.1262 45.1947 11.5322 44.7853 10.9641 44.3545L11.3806 43.8052C11.9318 44.2237 12.5084 44.6201 13.0946 44.9848L12.7305 45.5697ZM16.5627 47.4852C15.8994 47.2261 15.2393 46.9352 14.6019 46.6172L14.9103 46.0005C15.5282 46.3095 16.1682 46.5926 16.8121 46.8426L16.5627 47.4852ZM20.6838 48.6635C19.9836 48.5339 19.2814 48.3681 18.5961 48.1731L18.7846 47.5098C19.4492 47.6989 20.1306 47.8589 20.8101 47.9859L20.6838 48.6635ZM24.9506 49.0521H24.9021C24.2064 49.0521 23.5016 49.0197 22.8085 48.9569L22.8733 48.2703C23.5456 48.335 24.229 48.3629 24.904 48.3629H24.9526L24.9506 49.0521ZM47.2785 19.479C47.4728 20.1631 47.6386 20.8659 47.7695 21.5668L47.0919 21.6963C46.9624 21.0155 46.8043 20.336 46.6158 19.6701L47.2785 19.479ZM44.096 13.973C43.7313 13.3861 43.3342 12.807 42.9164 12.2584L43.4651 11.8419C43.8959 12.4093 44.3072 13.004 44.6816 13.609L44.096 13.973ZM27.0928 48.9478L27.028 48.2612C27.7173 48.1964 28.411 48.1006 29.0899 47.9742L29.2155 48.6518C28.5172 48.782 27.8028 48.8818 27.0928 48.9478ZM31.3033 48.1627L31.1167 47.4975C31.7826 47.3096 32.4466 47.0875 33.0905 46.8394L33.3392 47.4819C32.6753 47.7404 31.9912 47.9684 31.3046 48.1627H31.3033ZM35.3006 46.6198L34.9936 46.0024C35.6135 45.6948 36.2244 45.3547 36.8119 44.9906L37.1753 45.5736C36.5709 45.9513 35.9426 46.3024 35.3019 46.6198H35.3006ZM38.9443 44.3629L38.5285 43.8136C39.0791 43.3965 39.6174 42.9489 40.1284 42.4818L40.5935 42.991C40.0676 43.4723 39.5131 43.9348 38.9456 44.3629H38.9443ZM42.1106 41.4733L41.6015 41.0088C42.0679 40.4971 42.5155 39.9588 42.932 39.4088L43.4813 39.8247C43.0525 40.3928 42.5913 40.9473 42.1106 41.4733ZM44.6939 38.0563L44.1109 37.6936C44.475 37.106 44.815 36.4945 45.1227 35.8759L45.74 36.183C45.4201 36.8217 45.0696 37.4519 44.6939 38.0576V38.0563ZM45.1117 15.7906L45.7284 15.483C46.0464 16.1204 46.3386 16.7785 46.5964 17.4437L45.9538 17.6938C45.7038 17.0525 45.4207 16.4106 45.1117 15.7919V15.7906ZM46.6016 34.2209L45.9583 33.9721C46.2071 33.3283 46.4286 32.6643 46.6171 31.9984L47.2804 32.1862C47.0842 32.8735 46.8574 33.5582 46.6016 34.2222V34.2209ZM47.7676 30.0985L47.09 29.9722C47.2163 29.2927 47.3122 28.5996 47.3757 27.911L48.0623 27.9758C47.9982 28.6851 47.899 29.3996 47.7688 30.0998L47.7676 30.0985ZM47.4728 25.8336V25.8194C47.4728 25.1321 47.4404 24.4377 47.3776 23.7543L48.0642 23.6895C48.129 24.393 48.162 25.1094 48.162 25.8174V25.8317L47.4728 25.8336Z" fill="white"/>
</g>
</svg>
